PathFileType	4	(X/Y/Z)	\\147.46.242.158\로컬 디스크 (e)\MOCAP Data\Iguana Capture\iguana\Project 2\Capture day 6 after broken\Session 2\Take08 good walk.trc
DataRate	CameraRate	NumFrames	NumMarkers	Units	OrigDataRate	OrigDataStartFrame	OrigNumFrames
120.0	120.0	9	23	mm	120.0	265	9299
Frame#	Time	ana:head1			ana:head2			ana:bone1			ana:bone2			ana:bone3			ana:tail1			ana:tail2			ana:tail3			ana:tail4			ana:Rforefoot1			ana:Rforefoot2			ana:Rforefoot3			ana:Lforefoot1			ana:Lforefoot2			ana:Lforefoot3			ana:RhindLeg1			ana:RhindLeg2			ana:RhindLeg3			ana:RhindLeg4			ana:LhindLeg1			ana:LhindLeg2			ana:LhindLeg3			ana:LhindLeg4			
		X1	Y1	Z1	X2	Y2	Z2	X3	Y3	Z3	X4	Y4	Z4	X5	Y5	Z5	X6	Y6	Z6	X7	Y7	Z7	X8	Y8	Z8	X9	Y9	Z9	X10	Y10	Z10	X11	Y11	Z11	X12	Y12	Z12	X13	Y13	Z13	X14	Y14	Z14	X15	Y15	Z15	X16	Y16	Z16	X17	Y17	Z17	X18	Y18	Z18	X19	Y19	Z19	X20	Y20	Z20	X21	Y21	Z21	X22	Y22	Z22	X23	Y23	Z23	

8897	74.133	346.13876	-0.38371	48.36516	338.07568	6.58678	48.99086	323.16910	22.29026	43.16909	306.11115	43.61828	42.45907	276.80695	64.35511	37.11700	248.15314	81.73019	29.80287	222.28955	101.91374	20.10914	188.57814	130.00667	8.70368	161.52812	149.51849	5.68990	314.35696	15.29346	25.93306	301.22104	16.25686	16.56539	310.98282	16.96059	2.51260	334.91376	28.05476	31.36634	341.08118	39.05083	35.04509	353.24622	36.96411	23.36032	271.56329	56.85898	31.26758	266.83051	41.99486	32.44920	250.03314	49.80465	23.97683	243.85417	41.43282	15.69831	281.48065	75.56171	29.46011	288.76376	90.61111	22.46491	275.05746	98.12758	9.74982	284.50140	95.51252	3.46332	
8898	74.142	346.98425	-2.06601	48.36598	338.47766	5.37533	49.40446	323.98776	20.09945	42.56663	307.43726	42.48920	42.48024	277.47256	63.44902	36.85416	249.31920	79.71763	29.76640	223.05347	99.89390	19.76619	189.94698	128.52490	8.49990	163.21863	148.63913	5.55146	314.89313	14.13801	26.10406	301.65286	15.80084	16.80942	311.01770	16.92422	2.58593	335.77014	26.04164	31.19720	343.37375	37.06758	35.10886	355.39053	32.25274	23.83414	273.00314	55.24192	31.04551	270.62173	39.70732	32.33773	254.13446	45.65614	22.77789	250.78624	34.98999	15.79545	282.06436	74.33503	29.25526	289.19928	89.12750	22.02935	275.97336	98.38192	11.06592	284.53351	95.38792	3.71737	
8899	74.150	347.22745	-3.66078	49.48524	339.50296	3.50658	49.32108	324.46838	18.74687	42.73658	308.65076	41.28174	42.46430	279.06705	61.92056	36.49748	250.25223	77.75097	29.28911	224.08186	97.91299	19.49522	191.31374	126.97554	8.46992	164.42012	147.43254	5.38694	315.32822	12.94903	26.48480	302.21231	15.39305	17.17784	311.17545	16.83857	2.62293	337.25543	23.84607	31.22654	345.59732	34.19629	34.76114	358.02667	27.24921	25.16823	274.78784	53.43634	30.80721	274.54565	37.94152	32.96593	257.93686	41.12206	21.49521	257.69705	29.05183	16.42667	283.49759	72.96670	29.45998	289.62979	88.22681	22.33633	275.95575	97.48814	11.22431	284.97861	95.21346	4.16596	
8900	74.158	347.95718	-5.65663	48.77034	339.78241	1.79004	49.76409	325.63928	17.63845	43.66753	309.90613	39.93415	42.42655	280.12653	60.70671	36.72089	251.26376	75.48014	29.07057	225.01826	95.87111	19.33846	192.61957	125.61037	8.69192	166.27625	146.21944	5.58314	315.91049	11.63486	26.58491	302.86145	14.99767	18.07756	311.47461	16.66966	2.97230	338.36163	21.81626	31.53987	348.14941	30.76609	34.44946	359.19659	22.14699	25.56524	275.95096	51.74459	31.05621	278.09720	35.92220	32.56530	261.74811	35.75493	20.84142	264.95197	23.66719	16.41282	283.89203	71.82959	29.05729	289.95483	87.24834	22.46583	276.23953	97.12737	11.86138	285.26468	95.10483	4.39121	
8901	74.167	348.25156	-7.45917	49.25737	340.77148	0.01327	50.19859	325.91858	15.41785	42.90904	310.72162	38.52442	42.66825	281.55133	58.94971	36.45953	252.09955	73.61726	29.25269	225.79974	93.74017	19.18717	193.75786	123.78591	8.43391	168.00943	145.15619	5.59466	316.91559	10.45397	26.33895	303.38562	14.51212	18.20425	311.64893	16.66958	2.85176	339.95288	19.21316	32.14131	350.25073	27.73083	33.42669	360.69992	17.77547	26.02610	278.32462	49.88564	31.20507	281.41495	34.32680	32.47893	265.97464	30.77575	19.63738	271.68716	19.42974	15.92037	285.45700	70.22292	29.60389	290.28543	86.57394	22.65307	276.22824	96.25346	12.46071	285.49228	94.75182	4.83794	
8902	74.175	349.58621	-9.08663	49.18301	342.05606	-1.73757	50.40779	326.96667	14.11293	43.29775	311.96320	36.88793	42.99701	282.46964	57.52650	36.47005	253.06992	71.38023	28.78556	226.85065	91.51310	19.22337	195.15576	122.09461	8.35673	169.89346	143.95868	5.28295	317.23639	9.09794	26.54903	304.26056	13.55164	18.79783	311.94318	16.43852	3.13524	341.09671	16.74094	31.79892	353.00610	24.16357	32.95592	362.26718	13.28574	25.83219	279.59290	48.24456	30.97407	283.95367	32.56878	32.24727	270.37921	26.01718	18.80482	278.00500	15.86955	14.99510	286.47409	68.75020	29.65421	290.41632	84.62979	23.12521	276.60233	95.37895	12.81115	285.57520	94.40910	5.08574	
8903	74.183	350.38989	-10.88027	49.38021	342.04623	-3.23227	50.08101	327.88049	12.16805	43.40224	313.13037	35.36737	43.21001	284.64227	54.87210	36.63366	254.20888	69.39893	29.19889	228.02654	89.42152	19.08607	196.57831	120.42873	8.46656	171.60492	142.30312	5.70223	318.18387	7.77951	26.83498	305.01349	12.79437	18.86831	312.14569	16.08715	3.29601	342.67523	14.18137	31.79358	354.97842	20.26821	32.36078	363.45563	8.44805	24.99210	281.03326	46.39487	31.25243	286.53320	30.63400	32.00661	274.99332	21.91895	17.75395	283.30115	12.82779	13.64689	287.32181	67.18027	29.92134	290.84192	83.19276	23.60956	276.93970	94.49126	13.34282	285.70160	94.23331	5.44582	
8904	74.192	351.57095	-12.66919	49.46007	343.39398	-5.43192	50.26492	328.92108	10.46815	43.77493	314.39169	33.81159	43.50902	284.83173	54.26561	37.06255	255.26747	67.16108	29.10219	228.93246	87.37556	19.21251	198.03726	118.72747	8.41903	173.05684	141.37149	5.80088	318.72778	6.22389	27.18512	305.95901	11.78874	19.35379	312.40253	16.12833	3.30047	343.92773	11.57473	31.98550	357.27005	16.07635	30.98021	364.86783	3.84785	24.00954	282.64780	44.31985	31.24867	288.55807	28.84847	31.10643	279.26169	19.02432	15.49765	287.78278	10.48189	11.81238	288.29672	65.33725	30.12601	290.86096	81.59959	23.76371	277.51678	93.63493	13.90093	285.82593	94.12075	5.62275	
8905	74.200	352.42572	-14.66162	49.76747	344.26563	-7.24393	50.32014	329.79608	8.50324	43.80780	315.56750	31.81575	43.86463	285.82172	52.44021	37.16229	256.49982	65.12418	29.31347	230.09003	85.40737	19.47671	199.46222	116.99899	8.71952	174.64397	139.57585	5.65204	319.82693	4.44692	27.45395	307.03302	10.53958	19.63713	312.73676	15.88451	3.62832	344.66443	9.90039	31.38415	358.71039	12.08717	29.29240	365.95569	-0.27648	22.22358	283.84885	42.39955	30.98730	289.84323	26.80788	30.41699	281.24841	18.08225	13.74655	290.46442	8.80249	9.69326	289.26035	63.52364	30.61876	291.39819	80.15326	24.34377	277.94824	92.02283	14.12427	285.50845	93.59571	5.49780	
